<?xml version="1.0" encoding="UTF-8"?><svg id="Layer_1" xmlns="http://www.w3.org/2000/svg" viewBox="0 0 55 22"><path d="M52.52,4.53h1.62V.86h-1.62c-1.49,0-2.92.64-3.93,1.75l-2.52,2.79c-.31.34-.75.54-1.2.54s-.89-.2-1.2-.54l-2.52-2.79c-1.01-1.11-2.44-1.75-3.93-1.75h-1.6v3.67h1.6c.46,0,.89.2,1.2.54l2.45,2.71-2.45,2.71c-.31.34-.75.54-1.21.54h-1.6v3.67h1.6c1.49,0,2.92-.64,3.93-1.75l2.52-2.79c.31-.34.75-.54,1.2-.54s.89.2,1.2.54l2.53,2.79c1.01,1.11,2.44,1.75,3.93,1.75h1.62v-3.67h-1.62c-.46,0-.89-.2-1.2-.54l-2.45-2.71,2.45-2.71c.31-.34.75-.54,1.2-.54Z" fill="#5e00ff" stroke-width="0"/><path d="M3.48,21.14H.19c-.11,0-.19-.09-.19-.19v-5.4c0-3.9,3.17-7.07,7.07-7.07,1.14,0,2.27.28,3.28.8l11.4,6.17c1.32.72,2.88.71,4.18-.02,1.41-.79,2.24-2.33,2.24-3.95v-2.61c0-2.4-1.95-4.35-4.35-4.35H.2c-.11,0-.19-.09-.19-.19V1.05c0-.11.09-.19.19-.19h23.61c4.43,0,8.02,3.59,8.02,8.02v2.56c0,2.92-1.48,5.68-4,7.14-2.44,1.41-5.36,1.45-7.84.11l-11.37-6.16c-.46-.24-1-.37-1.55-.37-1.87,0-3.4,1.52-3.4,3.4v5.4c0,.11-.09.19-.19.19Z" fill="#5e00ff" stroke-width="0"/></svg>