<?xml version="1.0" encoding="UTF-8"?><svg id="Layer_1" xmlns="http://www.w3.org/2000/svg" viewBox="0 0 200 22"><path d="M3.48,21.14H.19c-.11,0-.19-.09-.19-.19v-5.4c0-3.9,3.17-7.07,7.07-7.07,1.14,0,2.27.28,3.28.8l11.4,6.17c1.32.72,2.88.71,4.18-.02,1.41-.79,2.24-2.33,2.24-3.95v-2.61c0-2.4-1.95-4.35-4.35-4.35H.2c-.11,0-.19-.09-.19-.19V1.05c0-.11.09-.19.19-.19h23.61c4.43,0,8.02,3.59,8.02,8.02v2.56c0,2.92-1.48,5.68-4,7.14-2.44,1.41-5.36,1.45-7.84.11l-11.37-6.16c-.46-.24-1-.37-1.55-.37-1.87,0-3.4,1.52-3.4,3.4v5.4c0,.11-.09.19-.19.19Z" fill="#343433" stroke-width="0"/><path d="M198.4,4.48h1.6V.86h-1.6c-1.47,0-2.88.63-3.88,1.73l-2.49,2.76c-.31.34-.74.53-1.19.53s-.88-.19-1.19-.53l-2.49-2.76c-.99-1.1-2.4-1.73-3.88-1.73h-1.58v3.62h1.58c.45,0,.88.19,1.19.53l2.18,2.41c.13.15.13.37,0,.52l-2.18,2.41c-.31.34-.74.53-1.19.53h-1.58v3.62h1.58c1.47,0,2.88-.63,3.88-1.73l2.49-2.76c.31-.34.74-.53,1.19-.53s.88.19,1.19.53l2.49,2.76c.99,1.1,2.41,1.73,3.88,1.73h1.6v-3.62h-1.6c-.45,0-.88-.19-1.19-.53l-2.18-2.41c-.13-.15-.13-.37,0-.52l2.18-2.41c.31-.34.74-.53,1.19-.53Z" fill="#5e00ff" stroke-width="0"/><path d="M40.32,20.98s-.02.08-.05.11-.08.05-.13.05h-3.71s-.08-.02-.11-.05c-.03-.03-.05-.07-.05-.11V1.04c0-.05.02-.1.05-.13s.07-.05.11-.05h3.71c.05,0,.1.02.13.05.03.03.05.08.05.13v19.94Z" fill="#343433" stroke-width="0"/><path d="M74.22,20.98s-.02.08-.05.11-.07.05-.11.05h-23.01c-1.61,0-2.98-.56-4.11-1.69-1.13-1.13-1.69-2.5-1.69-4.11V1.04c0-.05.02-.1.05-.13s.07-.05.11-.05h3.71c.05,0,.1.02.13.05.03.03.05.08.05.13v14.89c0,.47.17.88.51,1.23.34.35.75.52,1.24.52h23.01s.08.02.11.05c.03.03.05.07.05.11v3.14Z" fill="#343433" stroke-width="0"/><path d="M108.51,20.98s-.02.08-.05.11-.07.05-.11.05h-23.01c-1.61,0-2.98-.56-4.11-1.69-1.13-1.13-1.69-2.5-1.69-4.11V1.04c0-.05.02-.1.05-.13s.07-.05.11-.05h3.71c.05,0,.1.02.13.05.03.03.05.08.05.13v14.89c0,.47.17.88.51,1.23.34.35.75.52,1.24.52h23.01s.08.02.11.05c.03.03.05.07.05.11v3.14Z" fill="#343433" stroke-width="0"/><path d="M113.82,6.64c0-1.6.56-2.96,1.69-4.09s2.5-1.69,4.11-1.69h17.39c1.6,0,2.96.56,4.1,1.69,1.14,1.13,1.7,2.49,1.7,4.09v14.32c0,.05-.02.1-.05.13s-.08.05-.13.05h-3.71s-.08-.02-.11-.05c-.03-.03-.05-.08-.05-.13v-6.49h-20.88v6.49c0,.05-.02.1-.05.13s-.07.05-.11.05h-3.71c-.05,0-.1-.02-.13-.05-.03-.03-.05-.08-.05-.13V6.64ZM138.76,11v-4.93c0-.49-.17-.9-.52-1.24-.34-.34-.75-.51-1.23-.51h-17.39c-.49,0-.9.17-1.24.51-.34.34-.51.75-.51,1.24v4.93h20.88Z" fill="#343433" stroke-width="0"/><path d="M177.1,8.69c0,1.18-.31,2.24-.93,3.18-.62.94-1.45,1.64-2.48,2.1l.08.16,3.23,6.78c.01.05,0,.11-.02.16-.03.05-.07.08-.14.08h-4.12c-.07,0-.12-.03-.16-.1l-3.12-6.55h-17.25v6.49s-.02.08-.05.11-.08.05-.13.05h-3.71s-.08-.02-.11-.05c-.03-.03-.05-.07-.05-.11V1.04c0-.05.02-.1.05-.13s.07-.05.11-.05h23.03c1.6,0,2.96.56,4.09,1.69,1.13,1.13,1.69,2.5,1.69,4.11v2.03ZM152.19,11h19.13c.47,0,.88-.17,1.22-.51.34-.34.51-.75.51-1.24v-3.19c0-.47-.17-.88-.51-1.22s-.74-.51-1.22-.51h-19.13v6.65Z" fill="#343433" stroke-width="0"/></svg>